# xmcd
#
# Track frame offsets:
#	182
#	22215
#	35115
#	63937
#	84755
#	104080
#	127387
#	142642
#	156065
#
# Disc length: 2538 seconds
#
# Revision: 0
# Processed by: cddbd v1.4PL0 Copyright (c) Steve Scherf et al.
# Submitted via: EasyCDDAExtractor 4.6.0.1
#
DISCID=7909e809
DTITLE=Renaud - Un olympia pour moi tout seul [CD2)
DYEAR=1982
DGENRE=french
TTITLE0=Etudiant - poil aux dents
TTITLE1=La teigne
TTITLE2=Le pere noel noir
TTITLE3=Banlieue rouge
TTITLE4=La blanche
TTITLE5=C'est mon dernier bal
TTITLE6=Manu
TTITLE7=J'ai rate tele-foot
TTITLE8=Dans mon HLM
EXTD=
EXTT0=
EXTT1=
EXTT2=
EXTT3=
EXTT4=
EXTT5=
EXTT6=
EXTT7=
EXTT8=
PLAYORDER=
